<?xml version="1.0" encoding="UTF-8"?>
<svg xmlns="http://www.w3.org/2000/svg" version="1.1" viewBox="0 0 137.1 154.7">
  <defs>
    <style>
      .cls-1 {
        fill: #e8058a;
      }

      .cls-2 {
        fill: #2e3094;
      }

      .cls-3 {
        fill: #fff;
      }

      .cls-4 {
        fill: #8cc739;
      }

      .cls-5 {
        fill: #ed1c22;
      }

      .cls-6 {
        fill: #662e93;
      }

      .cls-7 {
        fill: #fbb96f;
      }

      .cls-8 {
        fill: #d8e01b;
      }

      .cls-9 {
        fill: #f0592c;
      }

      .cls-10 {
        fill: #089644;
      }
    </style>
  </defs>
  <!-- Generator: Adobe Illustrator 28.6.0, SVG Export Plug-In . SVG Version: 1.2.0 Build 709)  -->
  <g>
    <g id="Layer_1">
      <g id="Layer_1-2">
        <g>
          <ellipse class="cls-3" cx="68.6" cy="77.3" rx="68.6" ry="77.3"/>
          <g>
            <path class="cls-2" d="M9,99.9l4-1-3.9-1.2v-.5c-.1,0,2.7-2.8,2.7-2.8l-4,1-.3-1.1,6.1-1.5.2.9-3.4,3.4,4.6,1.4.2.9-6.1,1.5-.3-1.1h.2Z"/>
            <path class="cls-2" d="M13.9,105.7l-2.7.9-.4-1,.6-.2c-.5,0-.9-.5-1.1-1.2-.4-1,0-1.9.8-2.2.8-.3,1.5,0,2,1.4l.4,1.2h0c.6-.2.9-.7.6-1.5-.2-.5-.5-1-.9-1.2l.6-.7c.5.4,1,1,1.2,1.7.5,1.3.1,2.3-1.2,2.7h0ZM12.3,105.1l.5-.2-.4-1.1c-.3-.7-.6-.8-.9-.7-.4,0-.5.5-.3,1.1.2.5.6.9,1.1.9Z"/>
            <path class="cls-2" d="M12.1,107.5h1c0,.6,0,1.2.2,1.8.3.7.6.8.9.7.8-.4-1.1-2.7.6-3.5.8-.4,1.7,0,2.2,1.3.3.6.4,1.3.3,1.8h-1c0-.6,0-1-.2-1.5-.3-.6-.6-.8-.9-.7-.9.4,1.1,2.8-.6,3.5-.8.4-1.7-.2-2.2-1.4-.3-.7-.4-1.6-.3-2.1h0Z"/>
            <path class="cls-2" d="M15.4,115.1c-.3,0-.6-.5-.8-.8-.5-.9-.3-1.7.7-2.2l2.1-1.1-.4-.7.8-.4.4.7,1-.5.5,1-1,.5.6,1.1-.8.4-.6-1.1-2,1c-.4.2-.5.5-.3.9.1.2.3.4.5.5l-.6.6h0Z"/>
            <path class="cls-2" d="M19.8,119l-1.9-3.2c-.5.5-.6,1.2-.2,1.9.3.5.6.7,1.1.9l-.3.9c-.7,0-1.2-.5-1.7-1.3-.8-1.4-.5-2.8.8-3.5,1.2-.7,2.6-.4,3.4.9.7,1.2.4,2.6-.9,3.4,0,0-.2,0-.3.2v-.2ZM18.5,115.4l1.4,2.3c.5-.4.7-1.1.3-1.8-.4-.6-1-.8-1.7-.6h0Z"/>
            <path class="cls-2" d="M24.4,120.7l-.9.6s0-.2-.1-.2c-.5-.7-1.2-.9-2-.3l-1.9,1.3-.6-.9,3.9-2.8.6.9-.6.4c.6,0,1.1.3,1.6,1Z"/>
            <path class="cls-2" d="M29.4,127.9c-1,.9-2.4.7-3.5-.5l-.9-1.1-1.4,1.2-.8-.9,4.7-4.2,1.7,1.9c1.1,1.2,1.2,2.6.1,3.5h0ZM28.6,127c.6-.5.6-1.2-.1-2l-.9-1-1.9,1.7.9,1c.7.8,1.4.9,2,.3Z"/>
            <path class="cls-2" d="M30.7,128.1l.8.8-3.3,3.4-.8-.8,3.3-3.4ZM31.6,126.9c.3-.3.7-.3,1,0s.3.7,0,1c-.3.3-.7.3-1,0-.3-.3-.3-.7,0-1Z"/>
            <path class="cls-2" d="M34.2,134.9l-2.9-2.4c-.4.6-.2,1.3.4,1.9.4.3.8.5,1.3.4v.9c-.7.1-1.3-.1-2-.7-1.2-1-1.4-2.5-.4-3.6.9-1.1,2.4-1.2,3.5-.3s1.2,2.3.2,3.5l-.2.2h.1ZM31.8,131.8l2.1,1.8c.4-.6.3-1.3-.3-1.8s-1.3-.5-1.8,0Z"/>
            <path class="cls-2" d="M35.1,135.1c.8-1.2,2.3-1.4,3.5-.5.8.5,1.2,1.3,1,2.1h-1c0-.6-.2-1-.6-1.3-.7-.5-1.5-.4-2.1.4-.5.8-.3,1.6.3,2.1.4.3.9.4,1.4.1l.4.9c-.7.4-1.6.3-2.3-.3-1.2-.9-1.5-2.3-.7-3.5h0Z"/>
            <path class="cls-2" d="M43.5,140.9l-3.3-1.9c-.2.7,0,1.4.8,1.8.5.3.9.3,1.4.2l.2.9c-.6.2-1.3.1-2.1-.3-1.4-.8-1.8-2.2-1.1-3.5.7-1.2,2.1-1.6,3.4-.9,1.2.7,1.6,2.1.9,3.4,0,0,0,.2-.2.3ZM40.6,138.4l2.4,1.4c.3-.6,0-1.3-.6-1.7s-1.3-.2-1.8.3Z"/>
            <path class="cls-2" d="M43.5,142.6l.7-.6c.3.4.8.9,1.3,1.1.6.3,1,.2,1.1,0,.4-.8-2.7-1.3-1.9-3,.4-.8,1.4-1,2.5-.5.6.3,1.2.7,1.5,1.1l-.7.6c-.3-.4-.7-.7-1.1-.9-.6-.3-1-.2-1.1,0-.4.9,2.7,1.3,1.9,3-.4.8-1.4,1-2.6.5-.7-.3-1.4-.9-1.6-1.3h0Z"/>
            <path class="cls-2" d="M51.2,143.8c.4-1.4,1.7-2.1,3.1-1.7,1.4.4,2.2,1.7,1.8,3.1-.4,1.4-1.7,2.1-3.1,1.7-1.4-.4-2.2-1.7-1.8-3.1ZM55.1,144.9c.3-.9-.2-1.6-1-1.8s-1.5.2-1.8,1.1c-.3.9.2,1.6,1,1.8s1.5-.2,1.8-1h0Z"/>
            <path class="cls-2" d="M59.1,143.1v.3l1.2.3-.2.9-1.3-.2-.7,3.8-1.1-.2.7-3.8-.8-.2.2-.9.8.2v-.3c.3-1,1-1.5,2.1-1.3.4,0,.7.2.9.5l-.5.8c0-.1-.3-.3-.6-.3-.5,0-.7.1-.8.6v-.2Z"/>
            <path class="cls-2" d="M63.7,142.5h1.2l-.5,6.4h-1.2l.5-6.4Z"/>
            <path class="cls-2" d="M74.4,146.1v2.8h-1v-2.6c0-.9-.5-1.3-1.2-1.2-.7,0-1.2.5-1.2,1.5v2.4h-1v-2.6c0-.9-.5-1.3-1.2-1.2-.7,0-1.2.5-1.2,1.5v2.4h-1l-.2-4.8h1.1v.6c.3-.4.9-.7,1.6-.7s1.3.2,1.6.7c.4-.5,1-.8,1.8-.9,1.2,0,2,.6,2,2h-.1Z"/>
            <path class="cls-2" d="M75.3,142.3c0-.4.2-.7.6-.8s.8.2.8.5-.2.7-.6.8c-.4,0-.8-.2-.8-.6h0ZM75.6,143.7l1.1-.2.7,4.8-1.1.2-.7-4.8Z"/>
            <path class="cls-2" d="M81.9,147.1c-.2.3-.6.5-1,.5-1,.2-1.7-.2-2-1.2l-.5-2.3-.8.2-.2-.9.8-.2-.2-1.1,1.1-.2.2,1.1,1.3-.3.2.9-1.3.3.5,2.2c0,.5.4.7.8.6.2,0,.4-.2.6-.3l.5.7Z"/>
            <path class="cls-2" d="M86.2,143.2l.8,2.7-1,.3-.2-.6c0,.5-.6.9-1.3,1.1-1,.3-1.9,0-2.1-.8s0-1.5,1.5-2l1.2-.4h0c-.2-.7-.7-.9-1.5-.7-.5.2-1,.5-1.3.9l-.7-.7c.4-.5,1-.9,1.8-1.2,1.3-.4,2.3,0,2.7,1.3h0ZM85.6,144.8l-.2-.5-1.1.3c-.7.2-.8.6-.7.9,0,.4.5.5,1.1.4.5-.2.9-.5.9-1.1h0Z"/>
            <path class="cls-2" d="M91.3,143.9c-.2.3-.5.6-.9.7-1,.4-1.7.1-2.1-.9l-.9-2.1-.7.3-.3-.8.7-.3-.4-1,1-.4.4,1,1.2-.5.3.8-1.2.5.9,2.1c.2.4.5.6.9.4.2,0,.4-.2.5-.4l.6.6h0Z"/>
            <path class="cls-2" d="M89.6,138.1c-.2-.3,0-.7.4-.9s.8,0,.9.3c.2.4,0,.8-.3.9-.4.2-.8,0-.9-.3h0ZM90.4,139.3l1-.5,2.1,4.3-1,.5-2.1-4.3Z"/>
            <path class="cls-2" d="M93.6,140.5c-.7-1.2-.3-2.7,1-3.4s2.7-.4,3.5.8c.7,1.2.3,2.7-1,3.4s-2.7.4-3.4-.9h0ZM97,138.5c-.5-.8-1.3-1-2-.6s-.9,1.2-.5,2c.5.8,1.3,1,2,.6s.9-1.2.5-2Z"/>
            <path class="cls-2" d="M102.7,134.2l1.6,2.2-.9.7-1.5-2.1c-.5-.7-1.1-.8-1.7-.4-.6.5-.8,1.2-.2,2l1.4,2-.9.7-2.8-3.9.9-.6.4.5c0-.6.4-1.1.9-1.5.9-.7,2-.6,2.9.5h-.1Z"/>
            <path class="cls-2" d="M106.5,133.5v-1c.5.1,1,0,1.3-.3.5-.4.4-1,0-1.5l-2.2-2.4-1.6,1.5-.7-.7,2.5-2.4,2.9,3c1,1.1,1,2.1,0,3.1-.6.5-1.3.8-2,.7h-.2Z"/>
            <path class="cls-2" d="M112.8,125.2l-2.5,2.8c.6.4,1.3.2,1.9-.4s.5-.8.5-1.3h.9c0,.7-.2,1.4-.7,2-1.1,1.2-2.5,1.3-3.6.3s-1.1-2.4-.2-3.5c.9-1,2.3-1.2,3.5-.2l.2.2h0ZM109.7,127.6l1.8-2c-.6-.4-1.3-.3-1.8.2s-.5,1.3,0,1.8Z"/>
            <path class="cls-2" d="M115.7,116.6l2.9,4.2-.6.9-3.4-.9,2,3-.6.9-4.9-1.4.6-.9,3.6,1-2.1-3.1.5-.8,3.7,1-2.1-3.1.6-.8h-.2Z"/>
            <path class="cls-2" d="M120.6,113.5l-1.9,3.3c.7.2,1.4,0,1.8-.8.3-.5.3-.9.2-1.4l.9-.2c.2.6,0,1.3-.3,2.1-.8,1.4-2.2,1.8-3.5,1.1s-1.6-2.1-.9-3.4c.7-1.2,2.1-1.6,3.4-.9,0,0,.2,0,.3.2ZM118,116.5l1.4-2.4c-.6-.3-1.3,0-1.7.6-.4.6-.2,1.3.3,1.8Z"/>
            <path class="cls-2" d="M116.9,110.4l.5-1,6,3-.5,1-6-3Z"/>
            <path class="cls-2" d="M118,108.1l.5-1,6.1,2.7-.5,1-6.1-2.7Z"/>
            <path class="cls-2" d="M124.9,103.4l-1.3,3.5c.7,0,1.3-.3,1.6-1,.2-.5.2-1,0-1.4l.9-.3c.3.6.3,1.3,0,2.1-.6,1.5-1.9,2.1-3.2,1.6-1.3-.5-1.9-1.9-1.4-3.2.5-1.3,1.8-1.9,3.2-1.4,0,0,.2,0,.3,0h0ZM122.9,106.6l1-2.5c-.7-.2-1.3.2-1.6.9-.3.7,0,1.3.6,1.7h0Z"/>
            <path class="cls-2" d="M123.4,98.7l1,.3s0,.2,0,.2c-.3.8,0,1.5,1,1.8l2.2.7-.3,1.1-4.6-1.4.3-1,.7.2c-.4-.5-.5-1.1-.2-1.9Z"/>
            <path class="cls-2" d="M124.8,93.3l4.5,3.4c1,.7,1.1,1.4.9,2.1-.1.5-.4.9-.7,1.1l-.7-.6c.3-.2.4-.4.5-.7,0-.4,0-.7-.4-1h-.2c0,0-5.2.8-5.2.8l.3-1.1,3.8-.6-3.1-2.3.3-1.1h0Z"/>
          </g>
          <g>
            <path class="cls-2" d="M63.1,107.8l-6.1,26.6c0,.3,9.1-.5,10-.6,19.8-2.2,37.4-17.3,45.7-34.9,2.1-4.4,3.5-9,4.4-13.7,1.2-6.8,1.9-15.1-1.4-21.4-4-7.8-11.2-13.5-14.7-21.5-2.2-4.9-2.5-10.8,3.4-13,.7-.3,4.9-1.6,5.5-1-1.2-1.2-2.8-2.2-4.4-2.7-1.4-.4-2-1.6-3.2-2.4-3.4-2.3-8.7,0-11.4,2.5-3.7,3.4-4.7,8-3.4,12.8,1.3,4.5,4.2,8.5,7.2,12.1,7.4,9.2,11.6,20.8,8.1,32.5v.2c-1.6,5.2-4.3,9.9-7.9,13.9-5.7,6.2-13.7,9-21.9,10.1-1,0-10,.4-10,.6h.1Z"/>
            <path class="cls-9" d="M44.8,106.8l-7.2,14s28.8,10.8,56-7c10.5-7.3,18.6-17.5,23.3-29.4,0,0-16.8,41.3-72.1,22.4Z"/>
            <path class="cls-5" d="M36.8,90.6l-1.7.7-10.8,9.3s20.8,18.1,46.1,14.2c0,0,25.8-1.4,39.8-19.8,0,0-27.7,27.7-73.3-4.3h0Z"/>
            <path class="cls-10" d="M34.1,71l-15.1,6.1s24.7,44.6,76.3,26.3c0,0-37.8,11.5-61.2-32.4Z"/>
            <path class="cls-4" d="M37.6,53h-15.7s1.5,7.1,1.6,7.6c1.6,5.9,4.1,11.6,7.2,16.8,6,9.7,14.7,17.3,25.1,21.9,7.4,3.6,15.5,5.7,23.7,6.2,4.6.2,8.1-.5,12.5-1.4,0,0-39.2,7.9-54.4-51.1Z"/>
            <path class="cls-8" d="M50,38.9s-13.3-6-17.3-6.6c0,0-7.8,32.1,18.7,56.2,0,0,7.9,10.3,27.5,15.1,0,0-37.2-8.1-28.9-64.7Z"/>
            <path class="cls-1" d="M50,14.9s15.8,10.5,13.6,19.2c-2.2,8.7-14.7,39.8-.7,59.8,0,0-16.3-11.6-21.3-40,0,0-2.4-22.9,8.5-38.9h0Z"/>
            <path class="cls-7" d="M72.4,76.9c0,4.4,0,8.1-.2,10.1-.2,1.4-.4,2.4-1.2,2.6-.5,0-1,.2-1.6.2s-.7,0-.7.4.3.5.9.5c1.7,0,4.5,0,5.3,0s3.9,0,6.4,0,.9,0,.9-.5-.2-.4-.5-.4c-.7,0-1.4,0-2.1-.2-1.3-.2-1.6-1.2-1.7-2.6-.2-2-.2-5.7-.2-10.1v-.7c0-.3,0-.4.3-.4h3.7c.3,0,.6.2.8.4.6.7,2.6,3.9,4.3,6.6,2.4,3.7,4.1,5.9,6,7,1.1.7,2.2.9,4.6.9h4.3c.5,0,.8,0,.8-.5s-.2-.4-.5-.4-.8,0-1.2,0c-.7,0-2.4-.5-4.9-3.2-2.6-2.9-5.6-7.2-9.5-12.5,4.4-3.9,5.7-7.1,5.7-10.6s-1.1-4.9-2.9-6.5c-2.4-1.7-5.3-2-8-2s-4.7,0-6.1,0-3.7,0-6,0-1,0-1,.4.2.4.7.4,1.1,0,1.7,0c1.5.3,1.8,1.1,1.9,2.7v18.3h0ZM77.6,57.8c0-.4,0-.6.4-.7.8-.2,1.5-.2,2.3-.2,2.6,0,6.7,2,6.7,8.7s-1.2,6.1-2.6,7.1c-.8.6-1.4.8-3.1.8s-2.2,0-3.3-.5c-.3,0-.4-.3-.4-.9v-14.4h0Z"/>
            <path class="cls-6" d="M71.9,6.3s-2.9,3-3.1,3.2c-2.5,2.7-4.9,5.6-7,8.6-6.9,9.6-11.5,20.1-11.8,31.9-.3,9,1.2,17.9,4.3,26.4,1.9,4.9,4.1,9.6,6.6,14.2-2.1-4.2-3.4-8.8-3.8-13.5-.5-4.4,0-8.9,1.2-13.2,1.5-4.5,4-8.7,7.2-12.2,3.2-3.7,6.9-6.8,9.5-11,1.9-3,3.2-6.4,3.9-9.8,1.7-8.8-1.6-17.5-6.9-24.6h0Z"/>
          </g>
        </g>
      </g>
    </g>
  </g>
</svg>